<?xml version="1.0" standalone="no"?>
<!DOCTYPE svg PUBLIC "-//W3C//DTD SVG 20010904//EN"
 "http://www.w3.org/TR/2001/REC-SVG-20010904/DTD/svg10.dtd">
<svg version="1.0" xmlns="http://www.w3.org/2000/svg"
 width="16.000000pt" height="16.000000pt" viewBox="0 0 16.000000 16.000000"
 preserveAspectRatio="xMidYMid meet">
<metadata>
Created by potrace 1.11, written by Peter Selinger 2001-2013
</metadata>
<g transform="translate(0.000000,16.000000) scale(0.017391,-0.017391)"
fill="#000000" stroke="none">
<path d="M278 906 c-32 -6 -62 -16 -68 -21 -5 -6 -13 -45 -16 -85 -4 -41 -7
-76 -8 -77 -1 -1 -17 -5 -36 -8 -131 -22 -171 -68 -87 -99 42 -16 76 -24 110
-25 13 -1 17 -10 17 -40 0 -35 -2 -38 -23 -34 -37 7 -51 -19 -44 -83 6 -60 46
-139 75 -148 12 -4 26 -30 40 -74 12 -37 39 -89 59 -116 50 -65 101 -91 180
-91 52 0 68 4 105 30 55 39 100 106 124 184 10 34 23 61 29 61 37 0 86 96 87
172 2 55 -12 72 -49 63 -21 -5 -23 -2 -23 34 0 38 2 40 38 47 64 12 112 35
112 54 0 25 -18 37 -85 54 -32 9 -59 17 -60 18 -1 2 -5 37 -9 78 -3 41 -12 80
-19 86 -6 6 -30 16 -52 21 -56 13 -328 13 -397 -1z m357 -20 c33 -4 65 -12 72
-19 7 -7 15 -52 19 -102 7 -96 10 -109 25 -99 5 3 6 10 3 16 -9 15 69 2 105
-17 l26 -13 -30 -12 c-147 -56 -614 -59 -787 -4 -17 5 -26 34 -10 34 4 1 33 7
66 15 55 13 58 13 63 -6 10 -35 23 -20 25 29 0 26 2 52 3 57 2 6 3 31 4 57 1
41 4 48 24 53 78 20 265 25 392 11z m91 -333 l-3 -27 -251 0 c-260 -1 -262 -1
-262 39 0 10 39 12 193 10 105 -1 219 0 252 4 33 4 63 5 67 4 4 -2 5 -15 4
-30z m-546 -81 c0 -10 4 -22 9 -27 5 -6 12 -39 15 -75 7 -64 7 -64 -13 -46
-29 26 -60 133 -46 157 10 16 35 10 35 -9z m620 -13 c0 -46 -19 -103 -46 -135
l-23 -29 5 55 c7 85 25 140 46 140 13 0 18 -8 18 -31z m-305 -83 c14 -29 24
-36 63 -45 55 -11 118 -7 138 10 11 9 14 9 14 -1 0 -24 -32 -135 -46 -160 -14
-24 -15 -23 -10 25 3 28 8 60 12 73 3 12 2 22 -4 22 -16 0 -34 -55 -33 -107 0
-104 -66 -170 -166 -166 -92 3 -143 57 -149 158 -5 69 -17 105 -34 105 -13 0
-13 -27 0 -35 6 -3 10 -27 10 -53 -1 -38 -3 -44 -11 -29 -14 24 -52 157 -47
163 3 2 18 0 34 -5 31 -9 82 -7 133 4 25 5 36 16 47 41 18 43 29 43 49 0z"/>
<path d="M381 253 c-18 -26 -30 -57 -29 -68 3 -19 11 -20 116 -21 110 -2 112
-1 118 22 4 16 -3 36 -27 69 -18 25 -34 45 -36 45 -2 0 -15 -7 -28 -16 -23
-15 -27 -15 -50 0 -13 9 -26 16 -29 16 -2 0 -18 -21 -35 -47z m89 -6 c8 0 22
3 31 7 19 8 59 -28 59 -53 0 -13 -15 -16 -94 -16 -79 0 -93 2 -88 15 10 30 46
61 62 54 8 -4 22 -7 30 -7z"/>
<path d="M445 143 c-47 -12 -36 -23 23 -23 35 0 62 4 62 10 0 6 -6 10 -12 10
-7 0 -22 2 -33 4 -11 2 -29 2 -40 -1z"/>
</g>
</svg>
