<svg id="Calque_1" data-name="Calque 1" xmlns="http://www.w3.org/2000/svg" viewBox="0 0 88 91.6"><defs><style>.cls-1{fill:#fff;}</style></defs><title>ico_h</title><path class="cls-1" d="M56.1,82.2a25.29,25.29,0,0,0-10.2,0,1,1,0,1,0,.5,1.9,22.56,22.56,0,0,1,9.3,0h.2a1,1,0,0,0,1-.8A.92.92,0,0,0,56.1,82.2Z" transform="translate(-6 -4.1)"/><path class="cls-1" d="M57,68.4l1.2-1.1c-.1-.1-1.1-1.2-3.3-.5a5.12,5.12,0,0,0-1.8,1.4c-.7.8-1.1,1.3-2.1,1.3s-1.4-.5-2.1-1.3a3.56,3.56,0,0,0-1.8-1.4,3.1,3.1,0,0,0-3.3.5l.8.7.4.5a11.82,11.82,0,0,0-5.8,8.7,2.65,2.65,0,0,0,.8,2.2,2.39,2.39,0,0,0,2.3.5,11.42,11.42,0,0,1,5.7-.3,11.45,11.45,0,0,0,6,0,9.58,9.58,0,0,1,5.7.3,2.18,2.18,0,0,0,2.3-.5,2.54,2.54,0,0,0,.8-2.2A11.84,11.84,0,0,0,57,68.4Zm3.7,9.4c-.1,0-.2.1-.4.1a12.46,12.46,0,0,0-6.8-.3,10.57,10.57,0,0,1-5,0,12.46,12.46,0,0,0-6.8.3c-.2.1-.3,0-.4-.1s-.2-.2-.1-.4a9.93,9.93,0,0,1,5.9-7.8.35.35,0,0,0,.2-.1.1.1,0,0,0,.1.1,4.59,4.59,0,0,0,3.6,2,4.34,4.34,0,0,0,3.6-2,.1.1,0,0,1,.1-.1.31.31,0,0,0,.2.1,9.87,9.87,0,0,1,5.9,7.8C60.9,77.6,60.8,77.7,60.7,77.8Z" transform="translate(-6 -4.1)"/><path class="cls-1" d="M94,30.6c0-1,0-4-14.9-6.3H79l-.9-14.2a4.57,4.57,0,0,0-3.5-3.9c-3.4-.8-11-2.1-23.6-2.1A111.09,111.09,0,0,0,27.4,6.3a4.72,4.72,0,0,0-3.5,3.9L23,24.1C6,26.3,6,29.6,6,30.6s0,3.8,13.4,6c1.2.2,2.4.4,3.7.5,0,.7.1,3.6.3,7.5-.3.1-.5.2-.8.3a5.13,5.13,0,0,0-5.1,0c-2.3,1.4-1.4,8.2-.3,12.1.9,3.1,3.4,10.2,8.7,10.9a58.31,58.31,0,0,0,5.6,15c4.9,8.5,11.4,12.8,19.6,12.8S65.7,91.5,70.6,83a59.13,59.13,0,0,0,5.6-14.9c5.5-.5,8.1-7.8,9-11,1.1-3.9,2-10.7-.3-12.1-1.5-.9-3.3-.8-5.3.1a1.8,1.8,0,0,0-.9-.4c.2-4.4.3-7.6.3-7.6V37c.6-.1,1.1-.2,1.6-.3C94,34.4,94,31.6,94,30.6Zm-86,0c0-.7,2.7-2.9,14.9-4.5l-.2,3a1.09,1.09,0,0,0,.9,1.1h.1a1,1,0,0,0,1-.9l1.2-18.8a2.57,2.57,0,0,1,1.9-2.2c3.3-.8,10.8-2,23.2-2s19.9,1.3,23.2,2a2.45,2.45,0,0,1,1.9,2.1L77.3,29a1,1,0,0,0,2-.2l-.2-2.5C89.6,28,92,30,92,30.6c0,2.1-14.4,6.1-42,6.1S8,32.8,8,30.6ZM19.8,58.5c-2-5.6-1.9-11.2-1.2-11.9a3.59,3.59,0,0,1,3.2.1h0l.2,3a3.33,3.33,0,0,0,1.1,2.1l.9.9h0c.3,4.2.7,7.7,1.1,10.4.1.7.2,1.5.4,2.6C22.4,64.8,20.5,60.5,19.8,58.5ZM68.7,82.1a14.92,14.92,0,0,0,.2-2.1V74.6a11.09,11.09,0,0,1,1.9-6.3l.5-.7a1,1,0,0,0-1.7-1.1l-.5.7a13.92,13.92,0,0,0-2.2,7.4V80c0,4.4-2.8,8-3.6,9A17.74,17.74,0,0,1,51,93.8,17.94,17.94,0,0,1,38.8,89c-.8-1-3.6-4.6-3.6-9V74.5a10.83,10.83,0,0,0-2.5-6.9l-.3-.3a1,1,0,0,0-1.5,1.3l.3.3a9.09,9.09,0,0,1,2.1,5.7V80a14.92,14.92,0,0,0,.2,2.1C29,74.6,27.4,65.8,27,63c-.1-.9-.3-2-.4-3.1,1.7,2.9,5.5,3.6,8.9,3.6a28.51,28.51,0,0,0,4.4-.3c5.5-.5,8.4-2.4,8.9-5.8.3-1.8,1.1-2.9,2.3-2.9s2,1.1,2.3,2.9c.5,3.5,3.4,5.3,8.9,5.8,3.7.4,10.7,1,13.3-3.3a26.07,26.07,0,0,1-.4,3.1C74.7,65.8,73.1,74.6,68.7,82.1Zm15-35.4c.8.7.9,6.3-1.1,11.9-.7,2.1-2.7,6.6-6,7.4.2-1.1.4-2,.5-2.7.4-2.9.8-7.1,1-10.4a4.5,4.5,0,0,1,.9-1,3.33,3.33,0,0,0,1.1-2.1l.2-2.9C81.1,46.5,82.6,46,83.7,46.7Zm-7.1-2.3A253.94,253.94,0,0,0,51,43.3a255.75,255.75,0,0,0-25.6,1.1c-.2-3.3-.2-5.9-.3-7a229.7,229.7,0,0,0,24.8,1.3,212.69,212.69,0,0,0,26.9-1.6C76.9,37.9,76.8,40.8,76.6,44.4Z" transform="translate(-6 -4.1)"/></svg>