<?xml version="1.0" encoding="utf-8"?>
<!-- Generator: Adobe Illustrator 16.0.0, SVG Export Plug-In . SVG Version: 6.00 Build 0)  -->
<!DOCTYPE svg PUBLIC "-//W3C//DTD SVG 1.1//EN" "http://www.w3.org/Graphics/SVG/1.1/DTD/svg11.dtd">
<svg version="1.1" id="Calque_1" xmlns="http://www.w3.org/2000/svg" xmlns:xlink="http://www.w3.org/1999/xlink" x="0px" y="0px"
	 width="1190.549px" height="1683.779px" viewBox="0 0 1190.549 1683.779" enable-background="new 0 0 1190.549 1683.779"
	 xml:space="preserve">
<title>mail</title>
<path fill="#FFFFFF" d="M1190.549,1347.542v-656.21c0-6.758-9.736-15.263-19.221-21.581L974.858,545.267V407.675
	c0-13.516-12.981-22.671-25.963-22.671H724.963l-114.085-72.585c-7.737-4.578-20.719-4.578-28.709,0l-114.086,72.596H244.153
	c-15.479,0-25.963,11.335-25.963,22.671v136.041L19.21,669.957C7.478,676.281-0.01,684.564-0.01,691.538v660.586
	c0,12.865,11.732,21.804,23.968,22.671h1140.381C1181.061,1374.578,1190.549,1363.243,1190.549,1347.542z M1141.122,732.08v574.697
	l-429.638-300.423l429.638-274.259V732.08z M1121.902,692.184L974.863,785.71V597.795l147.039,94.399V692.184z M595.405,355.353
	l45.686,29.435h-91.626l45.935-29.435H595.405z M922.938,430.351v388.497l-327.533,208.421l-327.533-208.42V430.362L922.938,430.351
	z M49.676,732.091l429.627,274.264L49.665,1308.53L49.676,732.091z M218.433,787.467l-150.78-95.924l150.786-95.732L218.433,787.467
	z M96.363,1331.401l424.642-298.469l58.667,37.499c11.235,7.409,19.724,7.409,31.223,0l58.651-37.499l427.14,298.469H96.363z"/>
<circle fill="#FFFFFF" cx="597.275" cy="692.253" r="203.833"/>
<path fill="#042814" d="M748.666,542.362c-40.283-40.282-93.838-62.445-150.822-62.445S487.321,502.1,447.022,542.362
	s-62.446,93.838-62.446,150.822s22.185,110.524,62.446,150.822c40.262,40.299,93.838,62.446,150.822,62.446
	s110.523-22.185,150.822-62.446c40.299-40.261,62.445-93.838,62.445-150.822S788.928,582.66,748.666,542.362z M477.398,856.908
	c14.29-24.692,35.79-44.425,61.615-56.551c17.019,13.093,37.208,20.687,58.831,20.687s41.759-7.572,58.741-20.639
	c25.819,12.133,47.325,31.852,61.646,56.524c-34.657,25.629-76.464,39.468-120.388,39.468S512.114,882.548,477.398,856.908z
	 M488.072,693.798c0.355,10.669,1.793,21.273,4.292,31.651c-9.019-0.867-15.626-8.882-14.759-17.9
	C478.201,701.35,482.256,696.024,488.072,693.798z M714.797,699.154c5.505,7.196,4.135,17.492-3.062,22.998
	c-2.431,1.859-5.333,3.002-8.38,3.298c2.5-10.378,3.938-20.982,4.292-31.651C710.484,694.883,712.959,696.738,714.797,699.154z
	 M629.252,714.198c-1.583-0.057-2.932-1.167-3.292-2.709l-4.763-19.21h29.477l-11.325,21.919H629.252z M661.973,692.28h5.318
	l-11.325,21.919h-5.318L661.973,692.28z M678.251,692.956v16.813c0,2.148-1.339,4.429-3.821,4.429h-7.154L678.251,692.956z
	 M498.174,682.23c0.291-7.997,1.334-15.949,3.117-23.751h193.158c1.783,7.802,2.826,15.754,3.117,23.751H498.174z M517.49,692.284
	h24.697l-11.325,21.92h-9.525c-2.481,0-3.82-2.286-3.82-4.43v-17.464L517.49,692.284z M553.476,692.284h5.318l-11.325,21.92h-5.318
	L553.476,692.284z M570.103,692.284h4.43l-4.763,19.205c-0.355,1.547-1.705,2.662-3.292,2.72h-7.688L570.103,692.284z
	 M507.615,630.172h180.457l2.916,18.269H504.704L507.615,630.172z M509.202,620.117l6.848-42.929h163.571l6.848,42.929H509.202z
	 M507.408,692.28v17.464c0,8.117,6.092,14.479,13.871,14.479h45.178c6.206-0.037,11.586-4.302,13.039-10.335l5.377-21.634h25.931
	l5.377,21.639c1.455,6.031,6.835,10.294,13.039,10.33h45.178c7.779,0,13.871-6.351,13.871-14.479V692.28h9.346
	c-1.376,52.391-29.636,96.632-68.305,112.471c1.795-2.538,3.279-5.283,4.419-8.176c4.716-11.886,3.124-25.348-4.233-35.806
	c-8.959-12.749-20.21-19.766-31.673-19.766s-22.713,7.022-31.673,19.766c-7.356,10.458-8.948,23.92-4.233,35.806
	c1.142,2.893,2.627,5.638,4.424,8.176c-38.689-15.839-66.928-60.054-68.304-112.477h9.346L507.408,692.28z M624.363,792.891
	c-3.503,8.947-11.278,15.526-20.682,17.501c-0.275,0.058-0.556,0.105-0.836,0.153v-23.502c0-2.776-2.251-5.027-5.027-5.027
	s-5.027,2.251-5.027,5.027v23.502c-0.275-0.048-0.556-0.096-0.837-0.153l0,0c-9.402-1.975-17.178-8.554-20.681-17.501
	c-3.553-8.731-2.389-18.674,3.085-26.349c7.022-9.997,15.347-15.5,23.454-15.5s16.405,5.503,23.454,15.5
	c5.484,7.669,6.661,17.612,3.117,26.349H624.363z M741.522,836.884c-4.893,4.893-9.987,9.504-15.283,13.833
	c-14.567-24.563-35.827-44.471-61.292-57.397c15.876-14.817,28.275-34.769,35.552-57.762c0.402,0,0.805,0.042,1.207,0.042
	c14.613,0.092,26.534-11.68,26.627-26.292c0.078-12.457-8.542-23.281-20.7-25.993c-0.238-8.349-1.225-16.658-2.948-24.83h43.866
	c2.776,0,5.027-2.251,5.027-5.027s-2.251-5.027-5.027-5.027h-47.391l-12.293-77.058c-0.388-2.438-2.49-4.232-4.959-4.233H511.775
	c-2.469,0.001-4.571,1.796-4.959,4.233l-12.293,77.063h-47.39c-2.777,0-5.028,2.251-5.028,5.027s2.251,5.027,5.028,5.027h43.859
	c-1.723,8.172-2.709,16.482-2.947,24.83c-14.263,3.182-23.246,17.323-20.064,31.586c2.708,12.145,13.512,20.761,25.954,20.699
	c0.413,0,0.826,0,1.244-0.042c7.266,22.962,19.659,42.865,35.482,57.683c-25.472,12.921-46.728,32.842-61.271,57.424
	c-5.274-4.318-10.356-8.919-15.246-13.802c-79.357-79.362-79.352-208.03,0.012-287.387c79.362-79.356,208.03-79.352,287.387,0.012
	c79.352,79.358,79.352,208.017,0,287.375L741.522,836.884z"/>
<path fill="#042814" d="M597.844,764.484c-7.816,0-15.045,2.148-19.332,5.758c-2.123,1.785-2.396,4.954-0.611,7.078
	c1.786,2.123,4.955,2.396,7.078,0.611c1.863-1.588,6.351-3.397,12.865-3.397s10.991,1.831,12.854,3.397
	c2.123,1.785,5.292,1.512,7.078-0.611c1.785-2.124,1.512-5.293-0.611-7.078l0,0C612.884,766.632,605.66,764.484,597.844,764.484z"/>
</svg>
